
<svg width="1024" height="768" xmlns="http://www.w3.org/2000/svg">
     
     <g id="_x31_f"> <path stroke="#000000" fill="#e0e0e0" fill-opacity="null" stroke-width="2" stroke-linejoin="null" stroke-linecap="null" stroke-opacity="null" d="m358.90001,65.2l-26.6,-48.5l-313.3,146.3l16.7,34.6l-6,232.8l21.9,0l-2.6,127.7l82.4,0l84.8,182l620,0l6,-360l-106.4,-134.4l55.5,-113l-78.3,-105.7l-82.2,55.7l-110,1l-161.9,-18.5z" id="ground"/><path
       class="st0"
       d="M587.5,179.5v59c-32.4-0.4-58.6-26.6-59-59H587.5z"
       id="1F-39" /><path
       d="M 653.5,185.5 653.5,206.5 642.5,206.5 642.5,238.5 589.5,238.5 589.5,185.5  z"
       id="1F-42"
       class="st0" /><path
       d="M 699.5,185.5 699.5,238.5 644.5,238.5 644.5,208.5 655.5,208.5 655.5,185.5  z"
       id="1F-43"
       class="st0" /><path
       class="st0"
       d="M728.5,185.5v48.7l-1.2,0.5c-6.4,2.5-13.3,3.9-20.2,3.9h-5.6v-53L728.5,185.5L728.5,185.5z"
       id="1F-44" /><path
       class="st0"
       d="M701.5,110.5v67h29v55.9l33.8-13.4c6.3-2.5,12.7-4.5,19.2-5.9V110.5H701.5z"
       id="1F-4546-1"
       inkscape:label="#1F-45" /><path
       class="st0"
       d="M864.5,176.5v-5h-20v-61h-59v103.1c8.9-1.9,18.9-2.8,28-2.9c0.3,0,0-34.3,0-34.3L864.5,176.5L864.5,176.5z"
       id="1F-46B" /><path
       class="st0"
       d="M869.5,185.5v37l-15.8-5.2c-12.7-4.2-25.9-6.4-38.2-6.5v-18.3h21v-7H869.5z"
       id="1F-47" /><path
       d="M 917.5,218.5 917.5,238.2 877.5,225.1 877.5,185.5 909.5,185.5 909.5,218.5  z"
       id="1F-49"
       class="st0" /><path
       d="M 1009.5,208.5 1009.5,238.5 927.5,238.5 927.5,218.5 929.5,218.5 929.5,208.5  z"
       id="1F-50"
       class="st0" /><path
       d="M 62 39 L 62 145.73828 L 341.5 145.73828 L 341.5 79.5 L 333.5 79.5 L 328.5 83.5 L 289.5 83.5 L 289.5 75.5 L 275.5 75.5 L 275.5 79.5 L 245.5 79.5 L 245.5 39 L 62 39 z "
       id="1F-01A"
       style="stroke:#000000;stroke-opacity:1;fill:none" /><rect
       x="372.5"
       y="123.5"
       class="st0"
       width="54"
       height="27"
       id="1F-07" /><path
       class="st0"
       d="M278.5,265.5v27h-6v17h15l0.7,12.7c3.6-1.6,8-3.5,12.4-5.5c-2.7-11.6,0.7-30,6.8-51.2H278.5z"
       id="1F-04" /><path
       class="st0"
       d="M340.5,280.5l16-15l3,2l4-4l-2-3l4-4l-2-3l3.1-3.1c-4.9-4.3-11-6.9-17.6-6.9c-0.6,0-1.3,0-1.9,0.1   c-17.1,11.3-25.6,37-25.6,62.9c0,0.7,0,1.4,0,2.1l26-15.1L340.5,280.5z"
       id="1F-05" /><path
       class="st0"
       d="M414.3,208.8c-1.3,16.6-9.5,30.2-20.3,34.4c-7.3-3.3-13-8-16.4-13.2c-2.9-4.5-2.2-10.6,1.8-14.2   C386.8,209,400.1,206,414.3,208.8L414.3,208.8z"
       id="1F-06" /><path
       class="st0"
       d="M302.5,441.5h-36c0.4-9.4,5.9-17.9,14.4-21.9l13-6.2L302.5,441.5z"
       id="1F-10" /><path
       class="st0"
       d="M378.2,430.8l-23.7,25.7c-18.3-6.9-32.4-21.9-38.2-40.6l-3.6-11.6l6.5-3.1c13.2-6.4,29-3.3,38.9,7.6l16.9,18.6   C376,428.5,377.1,429.6,378.2,430.8z"
       id="1F-37" /><path
       class="st0"
       d="M407.5,458v33.5l-31.5-26c-5.6-4.6-12.4-7.4-19.5-8l23.1-25.2C388.4,441.5,397.7,450.1,407.5,458z"
       id="1F-35" /><path
       class="st0"
       d="M330.5,503.8v7.7h-64v-12h38v-15h20c2.1,3.9,3.8,8,5,12.3C330.2,499.1,330.5,501.4,330.5,503.8z"
       id="1F-12" /><path
       class="st0"
       d="M322.8,481.5h-18.3v-28h1.7l5.9,12.8c1.6,3.4,3.7,6.5,6.3,9.1C320,477.4,321.4,479.4,322.8,481.5z"
       id="1F-11" /><rect
       x="266.5"
       y="514.5"
       class="st0"
       width="64"
       height="24"
       id="1F-13" /><rect
       x="266.5"
       y="541.5"
       class="st0"
       width="64"
       height="27"
       id="1F-14" /><path
       class="st0"
       d="M464.5,494.1v32.3l-28-12.9v-26.1h9l1-2.9C452.4,488,458.4,491.2,464.5,494.1z"
       id="1F-33" /><path
       class="st0"
       d="M493.5,506.2v40.2H483c-3.7,0-6.8-2.9-7-6.6c-0.1-2.6-1-5-2.4-7.1c-1.4-2-3.4-3.7-5.7-4.8l-1.4-0.6V495   C475.3,499.3,484.3,503,493.5,506.2z"
       id="1F-32" /><path
       class="st0"
       d="M548.5,520v26.5h-53V507C512.7,512.9,530.5,517.3,548.5,520z"
       id="1F-30" /><path
       class="st0"
       d="M606.5,522.8v23.7h-56v-26.2C569,522.9,587.7,523.8,606.5,522.8z"
       id="1F-28" /><path
       class="st0"
       d="M571.5,568.5v29h-22v29h-10v11h-7v25h-109v-74h26.8c6.5,0,12.1-4.6,13.4-11l1.3-6.5c0.3-1.5,1.6-2.5,3.1-2.5   H571.5z"
       id="1F-15" /><rect
       x="573.5"
       y="568.5"
       class="st0"
       width="21"
       height="29"
       id="1F-16A" /><path
       class="st0"
       d="M748.5,596.3v6.2h-37v-18h6v-16h3.2c10.3,0,19.3,5.6,24.1,14c0.2,0.4,0.5,0.8,0.7,1.2   C747.4,587.5,748.5,591.8,748.5,596.3z"
       id="1F-17" /><path
       d="M 711.5 640.67969 L 711.5 663.5 L 748.5 663.5 L 748.5 640.67969 L 711.5 640.67969 z "
       id="1F-18B"
       style="stroke:#000000;stroke-opacity:1;fill:none" /><path
       d="M 715.5,568.5 715.5,582.5 675.5,582.5 675.5,596.5 662.5,596.5 662.5,607.5 656.5,607.5 656.5,568.5     z"
       id="1F-16C"
       class="st0" /><path
       d="M 654.5,568.5 654.5,596.5 628.5,596.5 628.5,590.5 607.5,590.5 607.5,568.5  z"
       id="1F-16B"
       class="st0" /><path
       class="st0"
       d="M688.5,521.2v25.3h-47v-19.4c12.8,0.3,26.1-0.2,40-3.6L688.5,521.2z"
       id="1F-26" /><path
       class="st0"
       d="M749.5,538.3v0.2c0,3-1.7,5.7-4.2,7c-1.1,0.6-2.5,1-3.9,1h-51v-25.9l25.3-8.2l0,0   c3.5,11.1,10.6,17.5,17.7,21.1C739.6,536.7,745.7,537.9,749.5,538.3z"
       id="1F-25" /><path
       class="st0"
       d="M775.5,636.5h-7V603c0-1.9,1.6-3.5,3.5-3.5l0,0c1.9,0,3.5,1.6,3.5,3.5V636.5z"
       id="1F-D08" /><path
       class="st0"
       d="M776.5,492.9v30.6c-2.7,2.4-9.3,6.7-19.8,2.5c-2.5-1-4.9-2.7-7.2-4.8c-2.9-2.7-5.6-6-8.2-9.7c-1.4-2-2.7-4-4-6   l37.2-12C775.1,493.3,775.8,493.1,776.5,492.9z"
       id="1F-24" /><path
       class="st0"
       d="M833.5,483.7v44.6c-1.7-1-3.6-2-5.6-2.8c-13.3-5.5-38.7-5.2-49.4-3.5v-29.6   C792.2,488.8,818.8,484.6,833.5,483.7z"
       id="1F-23" /><path
       class="st0"
       d="M1002.5,542.5v56h-90v-8h-34v8h-37.3l3-10.3c0.9-3,1.3-6,1.3-9.1c0,0,0-4.2,0-9.5h45v-27h112V542.5z"
       id="1F-22B" /><path
       class="st0"
       d="M834.5,665.5h-41l6.4-33.3c3.3-17.2,17.2-30.3,34.6-32.7l0,0V665.5z"
       id="1F-21" /><text
       class="st1 st2"
       id="text46"
       x="159.66769"
       y="115.72126"
       style="font-size:8px;font-family:ArialMT">1F-01A</text>
<text
       transform="matrix(1 0 0 1 381.8311 135.8193)"
       class="st1 st2"
       id="text48">1F-07</text>
<text
       transform="matrix(1 0 0 1 384.8311 223.8193)"
       class="st1 st2"
       id="text50">1F-06</text>
<text
       transform="matrix(1 0 0 1 332.8311 269.8193)"
       class="st1 st2"
       id="text52">1F-05</text>
<text
       class="st1 st2"
       id="text54"
       x="566.83112"
       y="123.83891"
       style="font-size:8px;font-family:ArialMT">1F-38-1</text>
<text
       transform="matrix(1 0 0 1 534.8311 166.8193)"
       class="st1 st2"
       id="text56">1F-38B</text>
<text
       transform="matrix(1 0 0 1 541.8311 198.8193)"
       class="st1 st2"
       id="text58">1F-39</text>
<text
       transform="matrix(1 0 0 1 596.8311 220.8193)"
       class="st1 st2"
       id="text60">1F-42</text>
<text
       transform="matrix(1 0 0 1 662.8311 197.8193)"
       class="st1 st2"
       id="text62">1F-43</text>
<text
       transform="matrix(1 0 0 1 706.8311 223.8193)"
       class="st1 st2"
       id="text64">1F-44</text>
<text
       transform="translate(715.8311,154.8193)"
       class="st1 st2"
       id="text66"
       style="font-size:8px;font-family:ArialMT">1F-4546-1</text>
<text
       transform="matrix(1 0 0 1 795.8311 130.8193)"
       class="st1 st2"
       id="text68">1F-46B</text>
<text
       transform="matrix(1 0 0 1 828.8311 202.8193)"
       class="st1 st2"
       id="text70">1F-47</text>
<text
       transform="matrix(1 0 0 1 883.8311 212.8193)"
       class="st1 st2"
       id="text72">1F-49</text>
<text
       transform="matrix(1 0 0 1 940.8311 224.8193)"
       class="st1 st2"
       id="text74">1F-50</text>
<text
       transform="matrix(1 0 0 1 278.8311 301.8193)"
       class="st1 st2"
       id="text76">1F-04</text>
<text
       transform="matrix(1 0 0 1 376.8311 455.8193)"
       class="st1 st2"
       id="text78">1F-35</text>
<text
       transform="matrix(1 0 0 1 440.8311 503.8193)"
       class="st1 st2"
       id="text80">1F-33</text>
<text
       transform="matrix(1 0 0 1 472.8311 518.8193)"
       class="st1 st2"
       id="text82">1F-32</text>
<text
       transform="matrix(1 0 0 1 504.8311 531.8193)"
       class="st1 st2"
       id="text84">1F-30</text>
<text
       transform="matrix(1 0 0 1 556.8311 537.8193)"
       class="st1 st2"
       id="text86">1F-28</text>
<text
       transform="matrix(1 0 0 1 577.8311 589.8193)"
       class="st1 st2"
       id="text88">1F-16A</text>
<text
       transform="matrix(1 0 0 1 478.8311 616.8193)"
       class="st1 st2"
       id="text90">1F-15</text>
<text
       transform="matrix(1 0 0 1 614.8311 579.8193)"
       class="st1 st2"
       id="text92">1F-16B</text>
<text
       transform="matrix(1 0 0 1 663.8311 578.8193)"
       class="st1 st2"
       id="text94">1F-16C</text>
<text
       transform="matrix(1 0 0 1 648.8311 539.8193)"
       class="st1 st2"
       id="text96">1F-26</text>
<text
       transform="matrix(1 0 0 1 697.8311 535.8193)"
       class="st1 st2"
       id="text98">1F-25</text>
<text
       transform="matrix(1 0 0 1 751.8311 513.8193)"
       class="st1 st2"
       id="text100">1F-24</text>
<text
       transform="matrix(1 0 0 1 788.8311 503.8193)"
       class="st1 st2"
       id="text102">1F-23</text>
<text
       transform="matrix(1 0 0 1 715.8311 593.8193)"
       class="st1 st2"
       id="text104">1F-17</text>
<text
       class="st1 st2"
       id="text106"
       x="717.83112"
       y="628.12646"
       style="font-size:8px;font-family:ArialMT">1F-18A</text>
<text
       transform="matrix(1 0 0 1 771.8311 610.8193)"
       class="st1 st2"
       id="text108">1F-D08</text>
<text
       transform="matrix(1 0 0 1 807.8311 645.8193)"
       class="st1 st2"
       id="text110">1F-21</text>
<text
       transform="matrix(1 0 0 1 913.8311 571.8193)"
       class="st1 st2"
       id="text112">1F-22B</text>
<text
       transform="matrix(1 0 0 1 852.8311 554.8193)"
       class="st1 st2"
       id="text114">1F-22A</text>
<text
       transform="matrix(1 0 0 1 332.8311 425.8193)"
       class="st1 st2"
       id="text116">1F-37</text>
<text
       transform="matrix(1 0 0 1 277.8311 433.8193)"
       class="st1 st2"
       id="text118">1F-10</text>
<text
       transform="matrix(1 0 0 1 309.8311 473.8193)"
       class="st1 st2"
       id="text120">1F-11</text>
<text
       transform="matrix(1 0 0 1 275.8311 555.8193)"
       class="st1 st2"
       id="text122">1F-14</text>
<text
       transform="matrix(1 0 0 1 308.8311 501.8193)"
       class="st1 st2"
       id="text124">1F-12</text>
<text
       transform="matrix(1 0 0 1 273.8311 527.8193)"
       class="st1 st2"
       id="text126">1F-13</text>
<path
       d="M 62 149.73828 L 62 206.5 L 94.5 206.5 L 94.5 234.5 L 179.5 234.5 L 179.5 264.5 L 231.5 264.5 L 231.5 251.5 L 311.5 251.5 L 322.5 230.19922 L 322.5 208.5 L 258.5 208.5 L 258.5 149.73828 L 62 149.73828 z "
       id="1F-01B"
       style="fill:none;stroke:#000000;stroke-opacity:1"
       inkscape:label="#1F-01B" /><text
       style="font-size:8px;font-family:ArialMT"
       y="195.19838"
       x="157.99449"
       id="text986"
       class="st1 st2">1F-01B</text>
<path
       d="m 560.5,93.5 v 43 h 27 v -43 z"
       id="1F-38-1"
       style="fill:none;stroke:#000000;stroke-opacity:1"
       inkscape:label="#1F-38A"
       inkscape:connector-curvature="0"
       sodipodi:nodetypes="ccccc" /><path
       d="M 711.5 604.5 L 711.5 637.66016 L 748.5 637.66016 L 748.5 604.5 L 711.5 604.5 z "
       id="1F-18A"
       style="fill:none;stroke:#000000;stroke-opacity:1" /><text
       style="font-size:8px;font-family:ArialMT"
       y="654.0611"
       x="716.99451"
       id="text1006"
       class="st1 st2">1F-18B</text>
</g></svg>