<svg width="1024" height="768" xmlns="http://www.w3.org/2000/svg">
 <g class="layer">
  <path stroke="#000000" fill="#e0e0e0" fill-opacity="null" stroke-width="2" stroke-linejoin="null" stroke-linecap="null" stroke-opacity="null" d="m358.90001,65.2l-26.6,-48.5l-313.3,146.3l16.7,34.6l-6,232.8l21.9,0l-2.6,127.7l82.4,0l84.8,182l620,0l6,-360l-106.4,-134.4l55.5,-113l-78.3,-105.7l-82.2,55.7l-110,1l-161.9,-18.5z" id="ground"/>
  <g id="svg_2">
   <title>svg_2</title>
   <path d="m328.31976,109.34815z" id="p_svg_2" fill="#ffffff" stroke="#000000" stroke-width="2"/>
  </g>
  <g id="svg_3">
   <title>svg_3</title>
   <path d="m100.81976,602.24815z" id="p_svg_3" fill="#ffffff" stroke="#000000" stroke-width="2"/>
  </g>
  <g id="svg_4">
   <title>svg_4</title>
   <path d="m36.11976,198.04815l-16.7,-34.6l115.2,-53.8l7.2,16.6l50.6,-24l27.2,54.6l29.3,-16l-29.3,-49.9l85.8,-37.9l30.9,62.4l-107.7,233.4l-82.8,0l0,-23.8l25.9,0l-2,-88.4l-19.2,0.6l1.3,-36.3l-24.6,0l0.6,-20.9l-26.6,0.7l-3.3,-10.6l-17.3,6.6l-0.6,18.6l-43.9,2.7z" id="p_svg_4" fill="#ffffff" stroke="#000000" stroke-width="2"/>
  </g>
  <g id="svg_5">
   <title>svg_5</title>
   <path d="m749.71976,668.24815l0,-35.9l-27,0l0,-82.5l29.7,0l0,-43.5l-42.1,0l0,-5.8l9.3,0l0,-10.6l-57.6,0l-5.3,-11.5c0,0 -31,16.4 -62.7,-5.8l-13.7,13.3l0,30.2l-28.8,0.2l0,-21.5l-7.3,0l0,21.7l-33.4,-0.2l-0.8,41.9l-160.5,0l0,41.2l53.2,0l0,32.1l76.7,0l0,6.7l26.8,0l0,29.9l36.8,0l0,-13.1l9.5,0l0,-18.6l29.3,2.4l0,11.1l23.7,0l0,-14.9l25.3,0l0,10.4l26.2,0l0,9.1l25.9,0l0,15.3l66.8,-1.6z" id="p_svg_5" fill="#ffffff" stroke="#000000" stroke-width="2"/>
  </g>
  <g id="svg_6">
   <title>svg_6</title>
   <path d="m720.21976,489.94815l0,-13.7l29,0l0,-9.4l-8.6,0l0,-8.3l-39.9,0l0,-8.1l-13.8,0c0,0 -11.7,22.9 -29.7,28.1l5.3,11.5l57.7,0l0,-0.1z" id="p_svg_6" fill="#ffffff" stroke="#000000" stroke-width="2"/>
  </g>
  <g id="svg_7">
   <title>svg_7</title>
   <path d="m587.81976,466.24815c0,0 -9,-8 -11.1,-12.1l-22.4,0l0,20l26.1,0l7.4,-7.9z" id="p_svg_7" fill="#ffffff" stroke="#000000" stroke-width="2"/>
  </g>
  <g id="svg_8">
   <title>svg_8</title>
   <path d="m556.41976,423.84815l13,0c0,0 1.2,21.8 8.1,31.9l-22.4,0l0,20l-11.3,0l0,40l-33.4,0l1.1,-57.8l12.5,0l32.4,-34.1z" id="p_svg_8" fill="#ffffff" stroke="#000000" stroke-width="2"/>
  </g>
  <g id="svg_9" stroke="null">
   <title>svg_9</title>
   <path d="m691.5967,439.44815l15.41275,0l0,-8.62037l23.50932,0c0,0 -0.48774,-5.26296 0,-5.26296s14.24216,0 14.24216,0l0,-3.90185l17.55883,0l0,-20.23518l-75.89316,-1.17963l-3.70686,2.45c-0.09754,-0.09074 13.16912,12.43148 8.87696,36.75l0,-0.00001z" id="p_svg_9" fill="#ffffff" stroke-width="2" stroke="#000000"/>
  </g>
  <g id="svg_10">
   <title>svg_10</title>
   <path d="m604.21977,423.34817l23.6,0l0,17.1l-23.6,0l0,-17.1z" id="p_svg_10" fill="#ffffff" stroke="#000000" stroke-width="2"/>
  </g>
  <g id="svg_11">
   <title>svg_11</title>
   <path d="m627.81976,407.04815l0,16.3l-23.6,0l0,-17l23.6,0.7z" id="p_svg_11" fill="#ffffff" stroke="#000000" stroke-width="2"/>
  </g>
  <g id="svg_12">
   <path d="m522.21976,415.94815c0,0 8,7.5 33.9,7.5l-32.4,34.1l-12.5,0l0.2,-11l3.5,-0.4l7.3,-30.2z" id="p_svg_12" fill="#ffffff" stroke="#000000" stroke-width="2"/>
  </g>
  <g stroke="null" id="svg_13">
   <title>svg_13</title>
   <path stroke="#000000" d="m509.0719,399.74815c0,0 4.13675,11.7 13.54786,16.1l-8.37692,30.3l-2.79231,0.3l-49.33077,-19.6l0,-5.1l20.58034,0l0,-10.2l26.37179,-11.8l0.00001,0z" id="p_svg_13" fill="#ffffff" stroke-width="2"/>
  </g>
  <g id="svg_14">
   <title>svg_14</title>
   <path d="m590.45063,384.07901l-4.4,-4.5l-25.6,0l0,7.2l-22.4,0l0,10.6l-4.8,0l0,4.5l35.9,0l0,-3.7l10.1,0l11.2,-14.1z" id="p_svg_14" fill="#ffffff" stroke="#000000" stroke-width="2"/>
  </g>
  <g stroke="null" id="svg_15">
   <title>svg_15</title>
   <path stroke="#000000" stroke-width="2" fill="#ffffff" id="p_svg_15" d="m680.96564,396.94815c0,0 -10.53081,-13.79552 -17.45648,-15.44627l-0.9894,-13.5597l54.57679,0l0,-10.49403l43.72321,0l0,37.37761l-75.39514,0l-4.45899,2.12239l0.00001,0z"/>
  </g>
  <g stroke="null" id="svg_16">
   <title>svg_16</title>
   <path stroke="#000000" d="m661.51976,326.98135l50.87871,0l0,-5.3332l64.06585,0l8.95544,9.56298l0,11.03421l-28.14567,0l0,16.91911l-41.43122,0l0,8.1837l-54.32311,0l0,-40.3668z" id="p_svg_16" fill="#ffffff" stroke-width="2"/>
  </g>
  <g id="svg_17">
   <title>svg_17</title>
   <path d="m701.91976,313.94815l31.9,0l0,-10l21.9,0l0,-10.6l-14.6,-18l-6.9,4.9l-72.7,0l0,24.6l39.9,0l0.5,9.1z" id="p_svg_17" fill="#ffffff" stroke="#000000" stroke-width="2"/>
  </g>
  <g id="svg_18">
   <title>svg_18</title>
   <path d="m661.51976,249.24815l0,30.8l72.7,0l6.9,-4.9l-18.2,-24.2l-10.4,0l0,8.5l-18.9,0l0,-4l-24.3,0l0,-6.2l-7.8,0z" id="p_svg_18" fill="#ffffff" stroke="#000000" stroke-width="2"/>
  </g>
  <g stroke="null" id="svg_19">
   <title>svg_19</title>
   <path stroke="#000000" d="m736.3014,211.22569l0,-35.58163l-75.92245,0l0,22.02673l15.66308,0l0,-5.19605l34.58931,0l0,6.43858l-4.24209,0l0,8.35886l-3.69823,0l0,3.95351l33.61037,0l0.00001,0z" id="p_svg_19" fill="#ffffff" stroke-width="2"/>
  </g>
  <g stroke="null" id="svg_20">
   <title>svg_20</title>
   <path stroke="#000000" d="m659.27487,137.47907l20.76448,0l0,11.30314l26.89,0l0,-3.80616l24.81356,0l0,-15.91667l10.1746,0l27.72058,-22.0296l18.79186,26.18177l-21.28359,47.17332l-11.00518,-5.30556l-95.93191,0l-0.9344,-37.60025l0,0.00001z" id="p_svg_20" fill="#ffffff" stroke-width="2"/>
  </g>
  <g stroke="null" id="svg_21">
   <title>svg_21</title>
   <path stroke="#000000" d="m744.48516,116.62483l8.47133,-7.09067l-21.03869,-28.04519l-32.86131,36.3l10.33316,0l0,-6.77318l21.87651,0l0,-3.80991l5.39931,0l0,8.67813l7.81969,0.74082z" id="p_svg_21" fill="#ffffff" stroke-width="2"/>
  </g>
  <g id="svg_22">
   <title>svg_22</title>
   <path d="m602.71976,378.84445l16.4,-5.3l20.4,0l0,-126.6l-69.6,0c0,0 -35.5,26.6 -36.5,28.6s-9,18 -9,18l0,78.3l72.1,0l6.2,7z" id="p_svg_22" fill="#ffffff" stroke="#000000" stroke-width="2"/>
  </g>
  <g id="svg_23">
   <title>svg_23</title>
   <path d="m486.81976,400.44815l23.3,-10.3l0,-26.5l-148.2,0l-7,14.6l94.9,39.1l0,-18.1l37,1.2z" id="p_svg_23" fill="#ffffff" stroke="#000000" stroke-width="2"/>
  </g>
  <g id="svg_24">
   <title>svg_24</title>
   <path d="m414.61976,333.44815l94.5,0l0,29.6l-113.1,0l0,-21.6l18.2,0l0.4,-8z" id="p_svg_24" fill="#ffffff" stroke="#000000" stroke-width="2"/>
  </g>
  <g id="svg_25">
   <title>svg_25</title>
   <path d="m439.01976,313.54815l72.1,0l0,-21l-72.1,-2.5l0,23.5z" id="p_svg_25" fill="#ffffff" stroke="#000000" stroke-width="2"/>
  </g>
  <g id="svg_26">
   <title>svg_26</title>
   <path d="m415.51976,268.94815l23.5,0l0,4.4l25.3,0l0,-10.2l49.2,0l-3.3,12.2l0.9,16.2l-62.8,-2.1l0,-7.5l-38.1,0.5l5.3,-13.5z" id="p_svg_26" fill="#ffffff" stroke="#000000" stroke-width="2"/>
  </g>
  <g id="svg_27">
   <title>svg_27</title>
   <path stroke-width="2" stroke="#000000" fill="#ffffff" id="p_svg_27" d="m437.81976,233.74815l69.2,-0.9l16,14.6l-9.9,15.1l-58.4,-0.5l0,-8.8l-16.9,0l0,-19.5z"/>
  </g>
  <g id="svg_28" stroke="null">
   <title>svg_28</title>
   <path d="m504.6541,203.14815l32.96566,32.03131l-14.25542,11.76869l-15.83936,-14.94112l-68.50522,0.92103l17.62128,-29.77991l48.01305,0l0.00001,0z" id="p_svg_28" fill="#ffffff" stroke-width="2" stroke="#000000"/>
  </g>
  <g id="svg_29">
   <title>svg_29</title>
   <path d="m499.71976,133.84815l11,5.7l27.6,0l0,38.6l-7.1,0l0,20.6l8.4,10l2.8,-1.6l13.3,13.6l-17.4,13.3l-33.4,-31.3l-48.5,0l43.3,-68.9z" id="p_svg_29" fill="#ffffff" stroke="#000000" stroke-width="2"/>
  </g>
  <g id="svg_30">
   <title>svg_30</title>
   <path d="m562.71976,172.54815l22.7,0l0,9.5l12.1,11.1l-27,25l-12.6,-12.6l6.6,-6l-2.2,-4.2l0.4,-22.8z" id="p_svg_30" fill="#ffffff" stroke="#000000" stroke-width="2"/>
  </g>
  <g id="svg_31" stroke="null">
   <title>svg_31</title>
   <path d="m502.51976,116.34815l22.35236,-33.1l35.16909,0l0,16.6l63.87855,56.5l-21.12196,20l-16.61047,-14.9l-34.34882,0.3l-0.20507,-6.5l-3.38361,0l0,-25.5l-17.84088,0l0,-13l-27.88919,-0.4z" id="p_svg_31" fill="#ffffff" stroke-width="2" stroke="#000000"/>
  </g>
  <g id="svg_32" stroke="null">
   <title>svg_32</title>
   <path d="m654.41976,125.98623l-29.8612,31.76193l-63.3388,-56.63696l0,-17.06304l58.1725,0.71953l-0.51663,9.76499l35.54412,31.45356l0.00001,-0.00001z" id="p_svg_32" fill="#ffffff" stroke-width="2" stroke="#000000"/>
  </g>
  <g id="svg_33" stroke="null">
   <title>svg_33</title>
   <path d="m645.41976,74.04815l26,27.36363l-18.24906,25.13636l-33.75094,-32.45454l0.49057,-10.07576l12.36226,0l13.14717,-9.9697l0,0.00001z" id="p_svg_33" fill="#ffffff" stroke-width="2" stroke="#000000"/>
  </g>
  <g id="svg_34">
   <title>svg_34</title>
   <path d="m677.11976,51.58272l21.3,20.6l-26.5,27.5l-26.5,-25.8l31.7,-22.3z" id="p_svg_34" fill="#ffffff" stroke="#000000" stroke-width="2"/>
  </g>
  <g id="svg_35">
   <title>svg_35</title>
   <path d="m721.82409,52.95224l-24.4,19.5l-21.3,-20.6l28.7,-20.2l17,21.3z" id="p_svg_35" fill="#ffffff" stroke="#000000" stroke-width="2"/>
  </g>
  <title>02</title>
 </g>
</svg>